REM MD5 8aeccb616d10410cdba83c3b7c65f181
FILE "Hyper PlayStation Re-mix No. 4 (Japan).bin" BINARY
  TRACK 01 MODE2/2352
    INDEX 01 00:00:00
  TRACK 02 AUDIO
    INDEX 00 26:55:49
    INDEX 01 26:58:49
  TRACK 03 AUDIO
    INDEX 00 29:22:42
    INDEX 01 29:25:42
REM LEADOUT 33:51:11
